<svg width="400" height="466" viewBox="0 0 400 466" fill="none" xmlns="http://www.w3.org/2000/svg">
<path d="M190.437 11.2059C196.399 7.96019 203.601 7.96019 209.563 11.2059L316.657 69.5073C321.203 71.9825 324.613 76.1241 326.169 81.0613L373.105 229.988C374.339 233.901 374.339 238.099 373.105 242.012L326.169 390.939C324.613 395.876 321.203 400.018 316.657 402.493L209.563 460.794C203.601 464.04 196.399 464.04 190.437 460.794L83.3432 402.493C78.7967 400.018 75.3869 395.876 73.8309 390.939L26.8947 242.012C25.6615 238.099 25.6615 233.901 26.8947 229.988L73.8309 81.0613C75.3869 76.1241 78.7967 71.9825 83.3432 69.5073L190.437 11.2059Z" fill="#00C1FF"/>
<path d="M101.758 367.062V292.062H135.352L140.234 333.273C161.719 345.383 180.273 351.438 195.898 351.438C212.174 351.438 224.089 347.271 231.641 338.938C237.5 332.557 240.43 324.094 240.43 313.547C240.43 298.833 231.12 285.878 212.5 274.68C210.026 273.247 207.617 271.815 205.273 270.383L201.758 268.43L199.414 266.867L172.852 250.461C147.461 234.706 130.143 220.773 120.898 208.664C111.654 196.685 107.031 181.776 107.031 163.938C107.031 138.417 115.56 118.299 132.617 103.586C149.674 88.8724 172.852 81.5156 202.148 81.5156C224.805 81.5156 251.562 86.2682 282.422 95.7734V169.211H248.633L243.945 126.828C229.362 119.146 215.56 115.305 202.539 115.305C191.602 115.305 182.812 118.69 176.172 125.461C169.531 132.362 166.211 141.086 166.211 151.633C166.211 161.659 170.052 170.122 177.734 177.023C184.245 182.753 194.531 189.914 208.594 198.508L236.719 215.695C262.891 231.711 279.622 244.406 286.914 253.781C294.466 263.417 298.242 276.828 298.242 294.016C298.242 322.661 288.411 344.992 268.75 361.008C248.958 377.154 222.331 385.227 188.867 385.227C167.122 385.227 138.086 379.172 101.758 367.062Z" fill="white"/>
</svg>
